# xmcd CD database file
#
# Track frame offsets:
#	150
#	8486
#	23927
#	37055
#	49175
#	61611
#	73458
#	92625
#	104096
#	123843
#	142883
#	153392
#	172476
#	184175
#	233250
#	260868
#	274485
#	296539
#	312808
#	321894
#
# Disc length: 4578 seconds
#
# Revision: 0
# Processed by: cddbd v1.5.1PL0 Copyright (c) Steve Scherf et al.
# Submitted via: CDex 1.51
#
DISCID=2711e014
DTITLE=Memphis Slim - Blue This Evening
DYEAR=1900
DGENRE=Blues
TTITLE0=Memphis Slim USA
TTITLE1=Caught The Old Coon At Last
TTITLE2=We're Just Two Of The Same Old Kind
TTITLE3=I Love You More And More
TTITLE4=Chicago Stomp (Boogie)
TTITLE5=Son't Think You're Smart
TTITLE6=Memphis Woman (Menphis Tennessee)
TTITLE7=Misery
TTITLE8=Bertha Mea
TTITLE9=Rock Me Baby
TTITLE10=Ain't Nobody's Business
TTITLE11=In The Evening
TTITLE12=Frisco Bay Blues (Frisco Baby)
TTITLE13=I Believe I'll Settle Down - Darlin' I Miss You So - Roll'n Tumble
TTITLE14=Blue This Evening
TTITLE15=Pinetop's Blues
TTITLE16=Got A Little Old Mama
TTITLE17=Sad And Lonesome
TTITLE18=Goin' To Kansas City
TTITLE19=Slow And Easy
EXTD=
EXTT0=
EXTT1=
EXTT2=
EXTT3=
EXTT4=
EXTT5=
EXTT6=
EXTT7=
EXTT8=
EXTT9=
EXTT10=
EXTT11=
EXTT12=
EXTT13=
EXTT14=
EXTT15=
EXTT16=
EXTT17=
EXTT18=
EXTT19=
PLAYORDER=
